PathFileType	4	(X/Y/Z)	pose_F01_0-65.trc
DataRate	CameraRate	NumFrames	NumMarkers	Units	OrigDataRate	OrigDataStartFrame	OrigNumFrames
30	30	10	21	m	30	52	65
Frame#	Time	CHip			RHip			RKnee			RAnkle			RBigToe			RSmallToe			RHeel			LHip			LKnee			LAnkle			LBigToe			LSmallToe			LHeel			Neck			Nose			RShoulder			RElbow			RWrist			LShoulder			LElbow			LWrist			
		X1	Y1	Z1	X2	Y2	Z2	X3	Y3	Z3	X4	Y4	Z4	X5	Y5	Z5	X6	Y6	Z6	X7	Y7	Z7	X8	Y8	Z8	X9	Y9	Z9	X10	Y10	Z10	X11	Y11	Z11	X12	Y12	Z12	X13	Y13	Z13	X14	Y14	Z14	X15	Y15	Z15	X16	Y16	Z16	X17	Y17	Z17	X18	Y18	Z18	X19	Y19	Z19	X20	Y20	Z20	X21	Y21	Z21	
52	1.7333333333333334	-0.22750383566918753	1.883371730359405	-0.490327564283302	-0.24608168027611044	1.8798319214147992	-0.42921464535041776	-0.26186857441144823	1.7376105841997425	-0.3909959873268476													-0.21164172693715294	1.8855013964987029	-0.547061962767481	-0.20369184579445168	1.7371062896008616	-0.5219279062831913	-0.1955328069971917	1.6108795669406326	-0.4903631640374958	-0.1922517966858981	1.5844562283295438	-0.5663801409867231	-0.18313623836113802	1.595270938589355	-0.5730277308983636	-0.20033104191680404	1.6046203439519526	-0.47409063427991255	-0.23243945402488142	2.0414960028165727	-0.4992740398890668	-0.23926889314508418	2.1162407826563148	-0.5397395043806199	-0.2525822274900747	2.040892622426024	-0.41328682165021957	-0.2628908290542524	1.9474160606607598	-0.38080414854971023	-0.2778953652530135	1.8594954533450905	-0.34508368213933993	-0.20195473166097053	2.0425302356374946	-0.5858194587404074	-1.5166215177286622	1.8705708281616462	0.8211787533917373	-0.1854568915790203	1.884428372195244	-0.6476468811143204
53	1.7666666666666666	-0.22744717446984528	1.8829486009023926	-0.4903567342845543	-0.24412335057575718	1.8788013652776843	-0.43130577707969814	-0.2617137968097496	1.7377668866883191	-0.3894441754389711													-0.21168201517593965	1.8850894533957945	-0.547088086783877	-0.2043090873000122	1.7392386200684773	-0.5214371458965644	-0.19468542917658574	1.6114029086604391	-0.4872424813071183	-0.19228149284503815	1.5847451285809215	-0.5663867007595783	-0.18298108409860497	1.5943637715332035	-0.5733191331201056	-0.20011483068879846	1.6046586396482234	-0.4733526161496412	-0.23053715923875395	2.0414717932142366	-0.501413470854359	-0.2373337685417452	2.116214454100741	-0.5418403545752483	-0.2524981694917466	2.0408918100350713	-0.41332257043312576	-0.26188533580920714	1.946152185834137	-0.37758269588065063	-0.26986679586872386	1.8599494914218975	-0.34202636794308894	-0.20196506742337347	2.0423953295452213	-0.5859343241509981	-0.19270731954969156	1.9599051599190382	-0.6016669848877149	-0.18868144053421096	1.8849497697013722	-0.6312132970100105
54	1.8	-0.2275603991907998	1.8798282460006317	-0.48997845272295054	-0.24443145686874235	1.8758633213082712	-0.4310893036461852	-0.261559019208051	1.7379231891768958	-0.38789236355109463													-0.21376771934138716	1.8825424144003613	-0.544518617499215	-0.2045318700588541	1.741124344646079	-0.521487035435244	-0.19592905000490143	1.6129612681052605	-0.49013693711543527	-0.19211007391448529	1.5864067341787753	-0.5670184274487665	-0.18591204937820754	1.5940849843236586	-0.5743202810489066	-0.19989861946079288	1.6046969353444944	-0.4726145980193699	-0.2304810631716034	2.0402472089212615	-0.5009599509071113	-0.23728605554092472	2.115143098162439	-0.5420177049728727	-0.2524338379118873	2.039572644650714	-0.41278070234883457	-0.2561064559936447	1.9476823686168723	-0.3840372405047615	-0.26393484758766395	1.8630061193174343	-0.35150783574355976	-0.20282031817173343	2.042711526566301	-0.5890638903244839	-1.519719922449071	1.8751334511577968	0.8236665048574212	-0.1924616177509407	1.8932490435732303	-0.6234412794852293
55	1.8333333333333333	-0.22880129683918268	1.8842322609789006	-0.4940211711148343	-0.244485292547456	1.879953611068817	-0.4317525124896636	-0.26140424160635245	1.7380794916654723	-0.3863405516632182													-0.21472182929221353	1.8874283260172198	-0.5573176539839964	-0.20463465747234016	1.7427259824239216	-0.5214227408310267	-0.19567508837896508	1.6115316254639949	-0.49039851747862734	-0.19025767523673048	1.5849479567079519	-0.5686625838477015	-0.18391790693053833	1.5944175831686078	-0.5765628364596496	-0.19968240823278732	1.6047352310407652	-0.4718765798890986	-0.23053228615168397	2.0415172082720634	-0.5014391954400179	-0.23727742027408175	2.11373764782178	-0.5414469999156114	-0.25255255051233294	2.0384640879884146	-0.41280118573344193	-0.2543595539233273	1.947936806066306	-0.38667367183176854	-0.26297716554920647	1.8669778189287416	-0.3636012177672404	-0.2028670793550634	2.0440912457446117	-0.589531100542192	-1.519580197580639	1.8752197059689257	0.8233773290319183	-0.19134334203434195	1.8935421138749038	-0.6229732817497909
56	1.8666666666666667	-0.22678259191280883	1.8833848489545713	-0.4959285554808452	-0.24248337846176557	1.878663664432687	-0.4337162940397541	-0.2612494640046538	1.738235794154049	-0.38478873977534167													-0.21474908870768022	1.8853522861701701	-0.5569062864168345	-0.20185784256617895	1.741173408358106	-0.519973382418344	-0.19559054178631977	1.611169536089321	-0.4903780823241693	-0.1923781471353795	1.5851952485203966	-0.5664665145639816	-0.1839950477533161	1.5948459365347385	-0.5765008370940694	-0.19946619700478174	1.6047735267370362	-0.4711385617588273	-0.23238375015578233	2.0402269573024054	-0.49878738089221364	-0.23731860306258784	2.114022963288405	-0.5421615838789219	-0.25247721175268995	2.0382318848047345	-0.41215189214567904	-0.2578463107965799	1.9463159876098635	-0.38155056264439224	-0.26753871043041805	1.86554566585844	-0.36207788578809214	-0.2019700202886502	2.043896704438873	-0.5863947525188445	-1.5194404727122066	1.8753059607800548	0.8230881532064153	-0.19022506631774316	1.8938351841765775	-0.6225052840143526
57	1.9	-0.2288334585581824	1.8846799066709352	-0.49409981278885406	-0.244496759944873	1.8805159735246213	-0.4318987557097174	-0.2610946864029552	1.7383920966426256	-0.3832369278874652													-0.21698835930567906	1.8877117177588385	-0.555208602525611	-0.20373643779672745	1.7430611150392903	-0.518096947179902	-0.19586269214856394	1.6128766418026097	-0.49020656584680694	-0.19453936233858407	1.5852550633035027	-0.5641755036034145	-0.1860377682783044	1.5943724965045887	-0.5742785320758985	-0.19924998577677616	1.604811822433307	-0.47040054362855593	-0.23237646276856413	2.040204790004684	-0.49871833916885444	-0.23643777766588722	2.1139108355187277	-0.539330770127992	-0.2524392435202892	2.03821076985999	-0.41198856321554606	-0.25861756718954504	1.947382658834649	-0.3761442231736087	-0.26953169561966384	1.8678641660463158	-0.3605653368365055	-0.20286984725527085	2.0439575940395738	-0.5894138906294969	-1.5193007478437746	1.8753922155911837	0.8227989773809123	-0.1891067906011444	1.894128254478251	-0.6220372862789142
58	1.9333333333333333	-0.2266468936032815	1.8837898368414083	-0.4874964303597949	-0.24435672169097	1.8788588852767913	-0.43133858100529027	-0.2609399088012566	1.7385483991312023	-0.38168511599958876													-0.21377757965339314	1.8863931539810892	-0.5451360412676843	-0.20362344071335997	1.7421368890997126	-0.5182248521382955	-0.1958923421400009	1.612993396486816	-0.49012443786601817	-0.1925656265058812	1.5857583505343567	-0.5662875572165743	-0.18514273956062743	1.594665691709215	-0.5711808464660927	-0.1990337745487706	1.604850118129578	-0.46966252549828463	-0.23153595675264727	2.0389153537094824	-0.495755527724987	-0.23642318814519153	2.112595073244267	-0.5387549519006979	-0.2515606146371852	2.036950891160681	-0.40900818093802294	-0.2624594687168902	1.9499667823834554	-0.37266768229800057	-0.27252396532390183	1.8714679747490237	-0.3621518780166903	-0.20104541104910936	2.0423915751627844	-0.5827814372058282	-1.5193332455888486	1.8736968862615053	0.8237646412701553	-0.19070574491943001	1.8960245756753076	-0.6205620163733643
59	1.9666666666666666	-0.22761084378711782	1.8837252641883415	-0.4905534906497371	-0.2462527461658303	1.8786891389325602	-0.4292402609063935	-0.26002676606551706	1.7411315468271717	-0.3875273753998411													-0.21470935715639328	1.8862609459369981	-0.548328067275872	-0.20342440312298266	1.7435162428686442	-0.5185721318233404	-0.19579936544425144	1.6125284217648705	-0.4901802350090206	-0.19214679955883635	1.584221922507723	-0.5663395073973273	-0.18372502729582568	1.5935514935857826	-0.5764957643801671	-0.19881756332076503	1.6048884138258488	-0.46892450736801333	-0.2315022356823055	2.038915817040981	-0.4957049311695465	-0.23644467779760298	2.112578623630225	-0.538689698573721	-0.2515164228913948	2.036939377405792	-0.4090034245538468	-0.2624122111331017	1.9486997543682913	-0.3721822776341724	-0.27070058150697734	1.874456938359726	-0.36466450223578134	-0.20015537349420826	2.0421799797475297	-0.5796867407908368	-1.521362440956619	1.873619763305293	0.8260535308013082	-0.19018747622790746	1.8912482414888763	-0.6259749825795702
60	2.0	-0.2277842398125247	1.8827568676360256	-0.49051926661757916	-0.24631180618298176	1.8792673520940968	-0.42941116266720075	-0.26218838184169413	1.7375152148430657	-0.3846804321557568													-0.21480112684888616	1.887183948991918	-0.5485776644753517	-0.2037388196875322	1.7424414153294365	-0.5181498502992135	-0.19562299011721598	1.611398574379002	-0.4904046800737432	-0.19254155987401886	1.5857626443996082	-0.5664347824199241	-0.18404992066367282	1.5949081457471619	-0.5765141718907095	-0.19860135209275945	1.6049267095221196	-0.46818648923774203	-0.23150890383710743	2.0389462711533035	-0.49566273836725905	-0.23641775995745531	2.1125445006184465	-0.5387296221316378	-0.25336964101978676	2.0381846327301116	-0.4074938983386195	-0.2625882934105929	1.9514774426605002	-0.3731182388823978	-0.2725847235114079	1.881394269590988	-0.3696789660747766	-0.20013459212426044	2.0420283429958865	-0.5796101637782015	-1.5196458525347392	1.873503562328992	0.8243960950587154	-0.1902214498541853	1.8942185928245836	-0.6265648116649838
61	2.033333333333333	-0.22877728093734762	1.883049622256368	-0.4937716951829149	-0.24556494893525813	1.8804489478281605	-0.43492607819696594	-0.26220879580671885	1.7369700936206325	-0.38459419719300636													-0.21685307652764366	1.886279016124407	-0.5548796094742181	-0.2045136543528426	1.7405485206828535	-0.5213771616470984	-0.19602948872081555	1.6134885500979712	-0.49030729315740795	-0.1927072135459267	1.5865200906962966	-0.5664598776218215	-0.18624716705482575	1.595619471210364	-0.5743902111564692	-0.1983851408647539	1.6049650052183906	-0.46744847110747073	-0.23151481255500547	2.0388551795049654	-0.49566287854876795	-0.2364872217343824	2.1115082674336425	-0.5389013672494067	-0.2515393772469129	2.0369089868660506	-0.40889766523052934	-0.2625041041949552	1.9496980522090421	-0.37270700266978574	-0.2703747604061488	1.8751828293763444	-0.370399264746687	-0.20024428096534022	2.0408123233170286	-0.5797841470826904	-1.5214485202098251	1.8738508332405563	0.8261591738524642	-0.1902318057708923	1.8941121089799153	-0.6265390366408522
